<?xml version="1.0" standalone="no"?>
<!DOCTYPE svg PUBLIC "-//W3C//DTD SVG 20010904//EN"
 "http://www.w3.org/TR/2001/REC-SVG-20010904/DTD/svg10.dtd">
<svg version="1.0" xmlns="http://www.w3.org/2000/svg"
 width="200.000000pt" height="200.000000pt" viewBox="0 0 200.000000 200.000000"
 preserveAspectRatio="xMidYMid meet">

<g transform="translate(0.000000,200.000000) scale(0.100000,-0.100000)"
fill="#000000" stroke="none">
<path d="M990 1415 c0 -63 4 -105 10 -105 6 0 10 42 10 105 0 63 -4 105 -10
105 -6 0 -10 -42 -10 -105z"/>
<path d="M670 1454 c0 -13 123 -204 131 -204 11 0 4 12 -66 128 -43 71 -65 97
-65 76z"/>
<path d="M1287 1409 c-60 -95 -90 -150 -84 -155 5 -6 47 56 101 149 39 67 25
71 -17 6z"/>
<path d="M871 1370 c0 -14 6 -38 14 -55 13 -29 13 -29 14 -5 0 14 -6 39 -14
55 -13 29 -13 29 -14 5z"/>
<path d="M1110 1345 c-13 -48 -7 -75 8 -34 17 45 22 79 13 79 -4 0 -14 -20
-21 -45z"/>
<path d="M665 1230 c21 -22 41 -37 44 -35 6 7 -60 75 -73 75 -6 0 7 -18 29
-40z"/>
<path d="M1320 1235 c-22 -23 -29 -35 -19 -35 15 0 69 49 69 63 0 15 -18 5
-50 -28z"/>
<path d="M450 1222 c0 -7 190 -112 204 -112 20 0 -14 23 -98 69 -98 53 -106
56 -106 43z"/>
<path d="M889 1216 c-145 -52 -246 -210 -224 -352 10 -68 20 -52 20 34 0 95
25 156 92 224 65 66 129 92 223 92 94 -1 168 -33 230 -100 62 -67 84 -124 84
-216 1 -43 4 -78 8 -78 18 0 8 150 -13 205 -28 76 -108 156 -184 184 -65 24
-179 28 -236 7z"/>
<path d="M1435 1173 c-54 -31 -94 -58 -89 -60 14 -5 204 97 204 109 0 14 -12
9 -115 -49z"/>
<path d="M510 1042 c0 -11 89 -36 98 -28 2 3 -7 10 -22 16 -48 18 -76 22 -76
12z"/>
<path d="M1440 1038 c-39 -11 -63 -28 -38 -28 20 0 80 20 93 31 12 11 -9 10
-55 -3z"/>
<path d="M500 920 c0 -5 21 -10 46 -10 27 0 43 4 39 10 -3 6 -24 10 -46 10
-21 0 -39 -4 -39 -10z"/>
<path d="M1420 920 c0 -5 18 -10 40 -10 22 0 40 5 40 10 0 6 -18 10 -40 10
-22 0 -40 -4 -40 -10z"/>
<path d="M390 730 c0 -6 54 -10 143 -10 103 0 174 -6 253 -21 141 -27 285 -27
428 0 79 15 151 21 253 21 89 0 143 4 143 10 0 20 -267 12 -390 -12 -151 -29
-299 -29 -440 0 -114 24 -390 32 -390 12z"/>
<path d="M570 620 c0 -6 36 -10 88 -10 48 0 128 -7 177 -15 113 -19 214 -19
335 0 52 8 132 15 178 15 48 0 82 4 82 10 0 15 -130 12 -244 -5 -55 -8 -138
-15 -186 -15 -48 0 -131 7 -186 15 -114 17 -244 20 -244 5z"/>
<path d="M720 513 c0 -10 169 -27 275 -27 107 -1 285 17 285 27 0 7 -31 7 -92
1 -51 -4 -136 -8 -188 -8 -52 0 -137 4 -187 8 -61 6 -93 6 -93 -1z"/>
</g>
</svg>
