<?xml version="1.0"?>
<svg width="200" height="200" xmlns="http://www.w3.org/2000/svg" xmlns:svg="http://www.w3.org/2000/svg" preserveAspectRatio="xMidYMid meet" version="1.0">
 <g class="layer">
  <title>Layer 1</title>
  <g fill="#000000" id="svg_1" transform="matrix(0.11157 0 0 -0.11157 -11.3208 -11.4122)">
   <path d="m1025,-437c-87,-44 -105,-60 -105,-90c0,-18 -4,-23 -17,-19c-10,2 -105,24 -210,47l-193,42l-82,-18c-120,-27 -118,-25 -118,-100c0,-35 4,-67 10,-70c22,-14 7,-36 -54,-80c-55,-41 -65,-53 -70,-87c-4,-22 -22,-62 -41,-90c-39,-58 -38,-62 27,-125c43,-42 43,-42 162,-56l118,-15l97,33l97,32l79,-43c77,-42 79,-44 102,-105c13,-34 23,-65 23,-69c0,-4 -17,-12 -39,-18c-32,-10 -47,-24 -81,-77c-39,-60 -42,-68 -30,-90c7,-13 23,-34 35,-45l21,-20l101,47c98,46 102,49 133,106c36,66 43,70 85,59c22,-6 32,-17 39,-40c8,-30 12,-32 57,-32c80,0 89,-10 31,-36c-29,-13 -52,-29 -52,-38c0,-8 25,-32 55,-53c46,-32 55,-43 57,-73c3,-33 5,-35 42,-38c35,-3 44,2 86,43c34,33 71,56 126,79c43,17 79,36 81,42c2,7 -9,21 -25,32c-28,21 -28,21 -72,1l-44,-20l-33,38c-18,21 -32,43 -32,48c0,6 26,29 58,52c43,30 93,52 175,78c115,36 115,36 122,71c6,31 13,38 58,58c45,20 54,29 64,63c16,53 15,73 -3,116c-10,25 -12,43 -6,60c12,31 3,75 -18,81c-9,3 -59,12 -111,22c-73,12 -101,22 -122,41l-27,25l-48,-17l-49,-18l-42,27c-23,14 -48,39 -56,55c-22,41 -44,61 -69,61c-18,0 -28,13 -50,63c-27,61 -30,64 -81,80c-71,23 -80,22 -161,-20zm140,-14c39,-10 46,-16 63,-57c11,-26 23,-57 27,-69c5,-17 14,-23 36,-23c23,0 36,-9 63,-47c21,-29 54,-58 81,-72c45,-24 48,-24 95,-9c47,15 49,15 70,-7c15,-16 41,-26 98,-35c130,-20 125,-17 118,-61c-4,-25 0,-52 10,-79c14,-34 15,-48 6,-79c-10,-31 -19,-40 -61,-58c-41,-17 -51,-27 -58,-54c-8,-33 -13,-35 -116,-69c-84,-28 -124,-48 -187,-93c-51,-37 -78,-63 -73,-70c3,-7 26,-38 51,-69l44,-57l-53,-50c-30,-28 -59,-50 -66,-51c-6,0 -13,12 -15,27c-2,19 -17,37 -45,58c-23,16 -42,32 -42,35c-1,4 15,12 35,19c37,13 61,49 51,75c-4,10 -28,17 -76,22c-64,6 -71,9 -79,34c-8,21 -20,30 -55,39c-75,18 -79,17 -120,-57c-38,-66 -41,-70 -119,-105c-62,-28 -84,-34 -95,-26c-19,16 -17,27 17,79c25,39 39,50 76,60c25,7 48,19 51,26c3,8 -10,52 -29,99l-33,86l-94,50l-93,50l-102,-34l-102,-34l-104,13c-100,13 -106,15 -142,52l-38,38l29,46c17,26 33,62 36,81c5,27 20,44 69,80c87,64 90,69 66,100c-13,17 -20,40 -20,70l0,44l83,18l82,17l206,-46c113,-25 213,-46 221,-46c10,0 19,14 25,38c7,33 16,41 78,74c80,43 73,41 130,27z" id="svg_2"/>
  </g>
 </g>
</svg>