<?xml version="1.0" standalone="no"?>
<!DOCTYPE svg PUBLIC "-//W3C//DTD SVG 20010904//EN"
 "http://www.w3.org/TR/2001/REC-SVG-20010904/DTD/svg10.dtd">
<svg version="1.0" xmlns="http://www.w3.org/2000/svg"
 width="512.000000pt" height="512.000000pt" viewBox="0 0 512.000000 512.000000"
 preserveAspectRatio="xMidYMid meet">

<g transform="translate(0.000000,512.000000) scale(0.100000,-0.100000)"
fill="#fff" stroke="none">
<path d="M698 5100 c-170 -36 -312 -113 -438 -240 -128 -127 -205 -268 -241
-443 -18 -88 -19 -162 -19 -1857 0 -1695 1 -1769 19 -1857 36 -175 113 -316
241 -443 127 -128 268 -205 443 -241 88 -18 162 -19 1857 -19 1695 0 1769 1
1857 19 175 36 316 113 443 241 128 127 205 268 241 443 18 88 19 162 19 1857
0 1695 -1 1769 -19 1857 -36 175 -113 316 -241 443 -127 128 -268 205 -443
241 -88 18 -161 19 -1862 18 -1676 0 -1775 -1 -1857 -19z m3690 -145 c44 -9
116 -35 167 -60 163 -78 260 -176 340 -340 80 -165 75 -29 75 -1995 0 -1966 5
-1830 -75 -1995 -80 -164 -176 -260 -340 -340 -165 -80 -29 -75 -1995 -75
-1965 0 -1830 -5 -1995 75 -161 78 -272 191 -349 356 -70 148 -66 38 -66 1979
0 1952 -4 1831 70 1987 76 161 183 269 345 348 159 78 24 73 1988 74 1547 1
1767 -1 1835 -14z"/>
<path d="M3980 4464 c-30 -8 -73 -25 -95 -39 -58 -34 -132 -117 -163 -183 -24
-50 -27 -69 -27 -157 0 -92 3 -106 32 -167 40 -85 106 -151 191 -191 61 -29
75 -32 167 -32 88 0 107 3 158 27 164 77 259 255 228 425 -30 165 -148 288
-309 322 -69 14 -114 13 -182 -5z m179 -150 c106 -31 182 -150 167 -261 -27
-200 -273 -285 -415 -142 -132 132 -73 354 109 410 40 12 83 10 139 -7z"/>
<path d="M2440 3993 c-574 -56 -1048 -426 -1239 -965 -102 -290 -102 -646 0
-936 267 -756 1094 -1154 1839 -886 484 174 839 592 935 1104 25 128 25 371 1
495 -99 521 -447 934 -936 1109 -184 66 -418 97 -600 79z m383 -174 c179 -36
376 -126 521 -238 58 -45 189 -176 236 -236 191 -243 293 -592 261 -899 -33
-326 -162 -591 -397 -816 -184 -177 -398 -287 -652 -337 -117 -23 -347 -23
-464 0 -496 98 -888 463 -1013 943 -180 692 241 1399 936 1573 180 45 383 49
572 10z"/>
<path d="M2440 3589 c-154 -18 -323 -79 -452 -165 -463 -308 -601 -933 -311
-1402 46 -75 66 -92 106 -92 30 0 67 39 67 71 0 13 -18 53 -40 89 -96 156
-133 289 -133 475 1 160 22 248 93 390 90 181 215 306 395 395 143 71 230 92
390 93 186 0 319 -37 475 -133 74 -46 107 -50 138 -17 46 49 27 90 -70 150
-131 81 -271 128 -433 147 -101 11 -119 11 -225 -1z"/>
<path d="M3292 3167 c-32 -34 -27 -63 23 -147 158 -262 174 -568 44 -839 -91
-191 -229 -329 -419 -420 -272 -130 -578 -114 -840 44 -85 50 -117 55 -148 22
-46 -49 -27 -90 70 -150 469 -290 1094 -152 1402 311 189 285 223 654 90 976
-33 79 -110 203 -134 216 -31 17 -65 11 -88 -13z"/>
</g>
</svg>
