<?xml version="1.0" encoding="UTF-8"?>
<!DOCTYPE svg PUBLIC "-//W3C//DTD SVG 1.1//EN" "http://www.w3.org/Graphics/SVG/1.1/DTD/svg11.dtd">
<svg xmlns="http://www.w3.org/2000/svg" version="1.1" width="512px" height="512px" style="shape-rendering:geometricPrecision; text-rendering:geometricPrecision; image-rendering:optimizeQuality; fill-rule:evenodd; clip-rule:evenodd" xmlns:xlink="http://www.w3.org/1999/xlink">
<g><path style="opacity:0.927" fill="#fff" d="M 511.5,108.5 C 511.5,206.5 511.5,304.5 511.5,402.5C 507.134,416.363 497.8,424.863 483.5,428C 351.5,428.667 219.5,428.667 87.5,428C 73.2164,425.051 64.0497,416.551 60,402.5C 59.1786,381.79 59.3453,361.123 60.5,340.5C 65.3327,336.262 69.8327,336.595 74,341.5C 74.0634,360.876 74.73,380.21 76,399.5C 124.014,351.653 171.847,303.653 219.5,255.5C 171.847,207.347 124.014,159.347 76,111.5C 74.5474,136.79 74.0474,162.123 74.5,187.5C 83.1731,187.334 91.8397,187.5 100.5,188C 104.277,190.955 105.443,194.788 104,199.5C 102.786,201.049 101.286,202.215 99.5,203C 67.8333,203.667 36.1667,203.667 4.5,203C 2.67694,202.003 1.01027,200.836 -0.5,199.5C -0.5,196.833 -0.5,194.167 -0.5,191.5C 0.639972,190.199 1.97331,189.032 3.5,188C 22.1637,187.5 40.8304,187.333 59.5,187.5C 59.0342,159.783 59.5342,132.116 61,104.5C 65.9787,92.5159 74.812,85.3493 87.5,83C 219.5,82.3333 351.5,82.3333 483.5,83C 497.8,86.137 507.134,94.637 511.5,108.5 Z M 89.5,98.5 C 220.64,98.0019 351.64,98.5019 482.5,100C 425.833,156.667 369.167,213.333 312.5,270C 294.5,282.667 276.5,282.667 258.5,270C 201.833,213.333 145.167,156.667 88.5,100C 89.056,99.6174 89.3893,99.1174 89.5,98.5 Z M 494.5,111.5 C 495.302,112.952 495.802,114.618 496,116.5C 496.167,162.833 496.333,209.167 496.5,255.5C 496.655,303.536 496.155,351.536 495,399.5C 446.986,351.653 399.153,303.653 351.5,255.5C 399.188,207.479 446.854,159.479 494.5,111.5 Z M 231.5,267.5 C 238.413,274.915 246.08,281.415 254.5,287C 281.175,300.082 305.842,297.082 328.5,278C 332,274.5 335.5,271 339,267.5C 386.833,315.333 434.667,363.167 482.5,411C 351.64,412.665 220.64,412.998 89.5,412C 89.1667,411.667 88.8333,411.333 88.5,411C 136.368,363.299 184.035,315.465 231.5,267.5 Z"/></g>
<g><path style="opacity:0.942" fill="#fff" d="M -0.5,259.5 C -0.5,256.833 -0.5,254.167 -0.5,251.5C 0.639972,250.199 1.97331,249.032 3.5,248C 22.1637,247.5 40.8304,247.333 59.5,247.5C 59.3336,238.827 59.5002,230.16 60,221.5C 64.6195,216.177 69.2862,216.177 74,221.5C 74.4998,230.16 74.6664,238.827 74.5,247.5C 93.1696,247.333 111.836,247.5 130.5,248C 134.277,250.955 135.443,254.788 134,259.5C 132.786,261.049 131.286,262.215 129.5,263C 87.8333,263.667 46.1667,263.667 4.5,263C 2.67694,262.003 1.01027,260.836 -0.5,259.5 Z"/></g>
<g><path style="opacity:0.943" fill="#fff" d="M -0.5,319.5 C -0.5,316.833 -0.5,314.167 -0.5,311.5C 0.639972,310.199 1.97331,309.032 3.5,308C 22.1637,307.5 40.8304,307.333 59.5,307.5C 59.3336,298.827 59.5002,290.16 60,281.5C 64.6195,276.177 69.2862,276.177 74,281.5C 74.4998,290.16 74.6664,298.827 74.5,307.5C 83.1731,307.334 91.8397,307.5 100.5,308C 104.277,310.955 105.443,314.788 104,319.5C 102.786,321.049 101.286,322.215 99.5,323C 67.8333,323.667 36.1667,323.667 4.5,323C 2.67694,322.003 1.01027,320.836 -0.5,319.5 Z"/></g>
</svg>
