<?xml version="1.0"?>
<svg width="256" height="256" xmlns="http://www.w3.org/2000/svg" xmlns:svg="http://www.w3.org/2000/svg" preserveAspectRatio="xMidYMid meet" version="1.0">
 <g class="layer">
  <title>Layer 1</title>
  <g fill="#000000" id="svg_1" transform="matrix(0.133115 0 0 -0.133115 -41.8875 -41.7998)">
   <path d="m650,-373c-47,-15 -103,-74 -118,-123c-17,-59 -17,-1509 0,-1568c16,-52 72,-108 124,-124c59,-17 1189,-17 1248,0c52,16 108,72 124,124c17,59 17,1509 0,1568c-16,52 -72,108 -124,124c-55,16 -1202,15 -1254,-1zm1250,-83c63,-38 60,3 60,-824c0,-678 -2,-755 -16,-780c-37,-62 -14,-60 -664,-60c-650,0 -627,-2 -664,60c-14,25 -16,102 -16,780c0,676 2,755 16,779c37,63 11,60 662,61c532,0 597,-2 622,-16z" id="svg_2"/>
   <path d="m792,-612c-17,-17 -17,-359 0,-376c17,-17 959,-17 976,0c18,18 17,362 -2,377c-9,8 -126,10 -411,9c-366,-3 -399,-4 -409,-20c-8,-13 -8,-23 0,-35c10,-17 41,-18 383,-21l371,-2l0,-120l0,-120l-420,0l-420,0l0,148c0,151 -5,172 -40,172c-9,0 -21,-5 -28,-12z" id="svg_3"/>
   <path d="m1012,-1212c-7,-7 -12,-33 -12,-59l0,-48l-51,-3c-96,-6 -96,-70 -1,-76l51,-3l3,-51c6,-95 70,-95 76,0l3,51l51,3c95,6 95,70 -1,76l-51,3l0,48c0,49 -12,71 -40,71c-9,0 -21,-5 -28,-12z" id="svg_4"/>
   <path d="m1372,-1332c-6,-6 -12,-20 -12,-29c0,-34 24,-40 165,-37c119,3 139,5 149,21c8,12 8,22 0,35c-10,15 -31,17 -150,20c-100,2 -143,-1 -152,-10z" id="svg_5"/>
   <path d="m927,-1647c-16,-15 -5,-49 25,-80l32,-33l-33,-34c-65,-67 -12,-120 55,-55l34,33l34,-33c67,-65 120,-12 55,55l-33,34l33,34c65,67 12,120 -55,55l-34,-33l-33,32c-31,30 -65,41 -80,25z" id="svg_6"/>
   <path d="m1410,-1655c-26,-32 13,-81 48,-59c34,22 22,74 -18,74c-10,0 -23,-7 -30,-15z" id="svg_7"/>
   <path d="m1492,-1733c-74,-74 -93,-99 -90,-118c2,-17 10,-25 28,-27c36,-4 213,174 208,209c-2,17 -10,25 -28,27c-20,2 -44,-16 -118,-91z" id="svg_8"/>
   <path d="m1570,-1815c-26,-32 13,-81 48,-59c34,22 22,74 -18,74c-10,0 -23,-7 -30,-15z" id="svg_9"/>
  </g>
 </g>
</svg>