<?xml version="1.0" standalone="no"?>
<!DOCTYPE svg PUBLIC "-//W3C//DTD SVG 20010904//EN"
 "http://www.w3.org/TR/2001/REC-SVG-20010904/DTD/svg10.dtd">
<svg version="1.0" xmlns="http://www.w3.org/2000/svg"
 width="860.000000pt" height="906.000000pt" viewBox="0 0 860.000000 906.000000"
 preserveAspectRatio="xMidYMid meet">

<g transform="translate(0.000000,906.000000) scale(0.100000,-0.100000)"
fill="#fff" stroke="none">
<path d="M2715 8632 c-94 -33 -569 -348 -785 -519 -128 -102 -344 -322 -401
-408 -71 -107 -119 -209 -147 -314 -21 -82 -25 -118 -26 -251 -1 -225 27 -374
175 -946 113 -437 389 -1212 598 -1677 332 -737 737 -1311 1352 -1912 393
-384 624 -562 1359 -1047 979 -647 1399 -784 1832 -598 226 97 389 218 936
694 207 181 216 196 216 361 0 127 -25 221 -103 381 -121 250 -303 487 -606
790 -226 227 -379 358 -544 465 -131 86 -183 105 -251 90 -227 -49 -534 -360
-756 -766 -47 -86 -147 -300 -174 -375 -8 -19 -15 -37 -16 -39 -2 -2 -72 38
-156 88 -759 456 -1397 1115 -1858 1920 -107 187 -282 546 -358 736 -108 270
-242 699 -224 716 4 4 72 23 152 43 625 155 1057 379 1161 601 29 60 31 73 26
138 -4 62 -17 100 -90 272 -381 894 -695 1372 -1005 1527 -75 38 -92 42 -170
45 -65 3 -99 -1 -137 -15z"/>
<path d="M4037 8380 c-60 -5 -111 -11 -114 -14 -3 -2 22 -49 55 -103 32 -54
92 -158 132 -230 l72 -133 142 0 c705 0 1400 -222 1990 -635 321 -224 617
-519 853 -850 583 -817 785 -1891 538 -2866 -19 -75 -39 -148 -45 -163 -5 -15
-10 -33 -10 -39 0 -7 43 -64 96 -127 53 -63 131 -164 175 -223 l78 -108 15 36
c30 70 86 233 116 335 176 589 211 1213 105 1825 -288 1650 -1597 2956 -3250
3245 -271 47 -698 70 -948 50z"/>
<path d="M909 6500 c-280 -438 -482 -993 -564 -1550 -38 -258 -45 -745 -15
-1000 127 -1074 652 -2015 1501 -2692 352 -280 778 -510 1214 -654 436 -143
781 -198 1255 -198 430 0 761 46 1139 160 l85 26 -150 77 c-156 81 -242 129
-385 216 -83 52 -87 53 -134 44 -205 -38 -642 -50 -907 -24 -793 77 -1544 433
-2119 1005 -286 285 -509 595 -679 945 -181 371 -285 726 -336 1145 -21 167
-23 573 -5 745 37 345 119 671 248 985 l56 134 -78 321 c-42 176 -81 331 -84
345 -7 23 -9 22 -42 -30z"/>
</g>
</svg>
