<?xml version="1.0" standalone="no"?>
<!DOCTYPE svg PUBLIC "-//W3C//DTD SVG 20010904//EN"
 "http://www.w3.org/TR/2001/REC-SVG-20010904/DTD/svg10.dtd">
<svg version="1.0" xmlns="http://www.w3.org/2000/svg"
 width="699.000000pt" height="669.000000pt" viewBox="0 0 699.000000 669.000000"
 preserveAspectRatio="xMidYMid meet">

<g transform="translate(0.000000,669.000000) scale(0.100000,-0.100000)"
fill="#000000" stroke="none">
<path d="M2630 6360 c0 -11 -85 -100 -95 -100 -16 0 -55 -52 -55 -72 0 -13 -9
-30 -20 -38 -11 -8 -20 -24 -20 -35 0 -11 -9 -27 -20 -35 -12 -8 -20 -26 -20
-42 0 -15 -4 -28 -10 -28 -16 0 -13 -347 3 -354 10 -5 10 -7 0 -12 -7 -3 -13
-12 -13 -20 0 -8 -9 -14 -20 -14 -11 0 -20 -4 -20 -10 0 -5 -9 -10 -20 -10
-11 0 -20 -4 -20 -10 0 -5 -7 -10 -15 -10 -8 0 -15 -4 -15 -10 0 -5 -9 -10
-20 -10 -11 0 -20 -4 -20 -10 0 -5 -8 -10 -18 -10 -10 0 -24 -9 -32 -20 -8
-11 -21 -20 -30 -20 -9 0 -22 -9 -30 -20 -8 -11 -21 -20 -30 -20 -9 0 -22 -9
-30 -20 -8 -11 -25 -20 -37 -20 -14 0 -23 -6 -23 -15 0 -8 -4 -15 -10 -15 -5
0 -10 11 -10 25 0 14 5 25 10 25 6 0 10 18 10 40 0 22 5 40 10 40 6 0 10 23
10 50 0 28 -4 50 -10 50 -5 0 -10 25 -10 55 0 30 -4 55 -10 55 -5 0 -10 14
-10 30 0 17 -4 30 -10 30 -5 0 -10 14 -10 30 0 17 -4 30 -10 30 -5 0 -10 9
-10 20 0 12 -11 32 -25 46 l-25 25 -25 -25 c-14 -14 -25 -30 -25 -36 0 -5 -4
-10 -10 -10 -5 0 -10 -9 -10 -20 0 -11 -7 -20 -15 -20 -8 0 -15 -9 -15 -20 0
-11 -4 -20 -10 -20 -5 0 -10 -13 -10 -30 0 -16 -4 -30 -10 -30 -6 0 -10 -48
-10 -125 0 -77 4 -125 10 -125 6 0 10 -20 10 -45 0 -25 5 -45 10 -45 6 0 10
-32 10 -76 0 -75 0 -76 -40 -114 -22 -21 -40 -43 -40 -49 0 -6 -9 -11 -20 -11
-11 0 -20 -7 -20 -15 0 -14 -82 -105 -95 -105 -3 0 -5 14 -5 30 0 20 -5 30
-15 30 -11 0 -15 12 -15 45 0 25 -4 45 -10 45 -5 0 -10 9 -10 20 0 11 -4 20
-10 20 -5 0 -10 9 -10 20 0 11 -4 20 -10 20 -5 0 -10 8 -10 18 0 10 -9 24 -20
32 -11 8 -20 21 -20 28 0 8 -13 27 -30 42 -16 15 -30 31 -30 35 0 4 -13 20
-30 35 -16 15 -30 35 -30 44 0 9 -7 16 -15 16 -8 0 -15 5 -15 10 0 6 -18 10
-40 10 l-40 0 0 -65 c0 -37 -4 -65 -10 -65 -6 0 -10 -40 -10 -100 0 -60 4
-100 10 -100 6 0 10 -25 10 -55 0 -30 5 -55 10 -55 6 0 10 -9 10 -20 0 -11 5
-20 10 -20 6 0 10 -9 10 -20 0 -11 5 -20 10 -20 6 0 10 -7 10 -16 0 -18 23
-44 39 -44 6 0 11 -9 11 -21 0 -11 18 -38 40 -59 22 -21 40 -45 40 -53 0 -9 6
-18 13 -21 10 -5 10 -7 0 -12 -7 -3 -13 -14 -13 -25 0 -10 -4 -19 -10 -19 -5
0 -10 -9 -10 -20 0 -11 -4 -20 -10 -20 -5 0 -10 -16 -10 -35 0 -19 -4 -35 -10
-35 -5 0 -10 -12 -10 -26 0 -26 20 -54 40 -54 17 0 40 26 40 44 0 9 5 16 10
16 6 0 10 9 10 20 0 16 7 20 30 20 17 0 30 -4 30 -10 0 -6 45 -10 115 -10 70
0 115 4 115 10 0 6 25 10 55 10 30 0 55 5 55 10 0 6 14 10 30 10 20 0 30 5 30
15 0 8 7 15 16 15 9 0 29 14 44 30 15 17 35 30 44 30 9 0 16 5 16 10 0 6 5 10
10 10 17 0 140 128 140 146 0 20 -24 44 -44 44 -9 0 -16 5 -16 10 0 6 -25 10
-55 10 -30 0 -55 5 -55 10 0 6 -37 10 -90 10 -53 0 -90 -4 -90 -10 0 -5 -16
-10 -35 -10 -19 0 -35 -4 -35 -10 0 -5 -8 -10 -18 -10 -10 0 -24 -9 -32 -20
-8 -11 -22 -20 -32 -20 -10 0 -18 -7 -18 -15 0 -8 -7 -15 -16 -15 -9 0 -29
-13 -44 -30 -28 -30 -50 -39 -50 -20 0 6 7 10 15 10 8 0 15 9 15 20 0 11 5 20
10 20 6 0 10 5 10 11 0 6 14 24 30 39 17 15 30 33 30 39 0 14 146 161 160 161
5 0 10 7 10 15 0 8 7 15 16 15 8 0 33 18 54 40 43 45 59 49 80 20 8 -11 22
-20 32 -20 10 0 18 -4 18 -10 0 -5 11 -10 25 -10 14 0 25 -4 25 -10 0 -5 14
-10 30 -10 20 0 30 -5 30 -15 0 -12 19 -15 115 -15 96 0 115 3 115 15 0 11 12
15 50 15 28 0 50 5 50 10 0 6 32 10 75 10 74 0 75 0 75 26 0 29 -21 54 -44 54
-9 0 -16 5 -16 10 0 6 -6 10 -13 10 -7 0 -19 9 -27 20 -8 11 -21 20 -30 20 -9
0 -22 9 -30 20 -8 12 -26 20 -42 20 -15 0 -28 5 -28 10 0 6 -13 10 -30 10 -20
0 -30 5 -30 15 0 12 -14 15 -65 15 -37 0 -65 4 -65 10 0 6 8 10 18 10 10 0 24
9 32 20 8 11 25 20 37 20 13 0 23 5 23 10 0 6 8 10 18 10 10 0 24 9 32 20 8
11 22 20 32 20 10 0 18 5 18 10 0 6 9 10 20 10 11 0 20 5 20 10 0 6 9 10 20
10 11 0 20 5 20 10 0 6 9 10 20 10 11 0 20 5 20 10 0 24 45 7 80 -30 21 -22
45 -40 52 -40 7 0 20 -9 28 -20 8 -11 21 -20 30 -20 9 0 22 -9 30 -20 8 -11
25 -20 37 -20 13 0 23 -4 23 -10 0 -5 9 -10 20 -10 11 0 20 -4 20 -10 0 -5 18
-10 40 -10 29 0 40 -4 40 -15 0 -13 22 -15 135 -15 113 0 135 2 135 15 0 11
12 15 45 15 45 0 45 0 45 36 0 32 -18 64 -35 64 -11 0 -35 28 -35 40 0 7 -13
25 -30 40 -16 15 -30 33 -30 39 0 6 -8 11 -18 11 -10 0 -24 9 -32 20 -8 11
-22 20 -32 20 -10 0 -18 5 -18 10 0 6 -11 10 -25 10 -14 0 -25 5 -25 10 0 6
-22 10 -50 10 -43 0 -50 3 -50 20 0 18 7 20 65 20 37 0 65 4 65 10 0 6 33 10
80 10 47 0 80 4 80 10 0 6 32 10 75 10 68 0 75 -2 75 -20 0 -11 5 -20 10 -20
6 0 10 -13 10 -30 0 -16 5 -30 10 -30 6 0 10 -13 10 -30 0 -16 5 -30 10 -30 6
0 10 -9 10 -20 0 -19 80 -110 98 -110 4 0 14 -9 22 -20 8 -11 21 -20 30 -20 9
0 22 -9 30 -20 8 -11 22 -20 32 -20 10 0 18 -4 18 -10 0 -5 9 -10 20 -10 11 0
20 -7 20 -15 0 -10 10 -15 30 -15 17 0 30 -4 30 -10 0 -5 25 -10 55 -10 30 0
55 -4 55 -10 0 -15 29 -12 46 4 16 16 19 96 4 96 -5 0 -10 14 -10 30 0 17 -4
30 -10 30 -5 0 -10 9 -10 20 0 11 -4 20 -10 20 -5 0 -10 8 -10 18 0 10 -9 24
-20 32 -11 8 -20 23 -20 33 0 23 -23 47 -45 47 -9 0 -30 14 -45 30 -15 17 -33
30 -40 30 -12 0 -40 24 -40 34 0 3 34 6 75 6 43 0 75 -4 75 -10 0 -5 23 -10
50 -10 28 0 50 -4 50 -10 0 -5 25 -10 55 -10 30 0 55 -4 55 -10 0 -5 23 -10
50 -10 28 0 50 -4 50 -10 0 -5 14 -10 30 -10 17 0 30 -4 30 -10 0 -5 20 -10
45 -10 25 0 45 -4 45 -10 0 -5 14 -10 30 -10 17 0 30 -4 30 -10 0 -5 9 -10 20
-10 11 0 20 -7 20 -15 0 -10 10 -15 30 -15 17 0 30 -4 30 -10 0 -5 9 -10 20
-10 11 0 20 -4 20 -10 0 -5 16 -10 35 -10 19 0 35 -4 35 -10 0 -5 9 -10 20
-10 11 0 20 -4 20 -10 0 -5 9 -10 20 -10 11 0 20 -4 20 -10 0 -5 9 -10 20 -10
11 0 20 -4 20 -10 0 -5 9 -10 20 -10 11 0 20 -4 20 -10 0 -5 11 -10 25 -10 14
0 25 -4 25 -10 0 -5 8 -10 18 -10 10 0 24 -9 32 -20 8 -11 22 -20 32 -20 10 0
18 -7 18 -15 0 -8 7 -15 16 -15 9 0 29 -13 44 -30 15 -16 35 -30 44 -30 9 0
16 -4 16 -10 0 -5 5 -10 11 -10 14 0 39 -26 39 -40 0 -14 -25 -40 -39 -40 -6
0 -11 -9 -11 -20 0 -11 -4 -20 -10 -20 -5 0 -10 -11 -10 -25 0 -14 -4 -25 -10
-25 -5 0 -10 -18 -10 -40 0 -22 -4 -40 -10 -40 -6 0 -10 -27 -10 -60 0 -33 4
-60 10 -60 6 0 10 -16 10 -35 0 -19 5 -35 10 -35 6 0 10 -9 10 -20 0 -11 5
-20 10 -20 6 0 10 -9 10 -20 0 -11 7 -20 15 -20 8 0 15 -9 15 -20 0 -11 5 -20
10 -20 6 0 10 -9 10 -20 0 -11 5 -20 10 -20 6 0 10 -16 10 -35 0 -19 5 -35 10
-35 6 0 10 -13 10 -30 0 -16 5 -30 10 -30 6 0 10 -7 10 -16 0 -8 7 -22 15 -30
13 -13 18 -12 40 10 14 14 25 32 25 41 0 8 5 15 10 15 6 0 10 14 10 30 0 17 5
30 10 30 6 0 10 16 10 35 0 24 5 35 15 35 12 0 15 16 15 80 0 47 4 80 10 80 6
0 10 28 10 65 0 37 -4 65 -10 65 -5 0 -10 9 -10 20 0 11 2 20 5 20 12 0 55
-50 55 -62 0 -8 9 -20 20 -28 11 -8 20 -22 20 -32 0 -10 5 -18 10 -18 6 0 10
-11 10 -25 0 -14 5 -25 10 -25 6 0 10 -13 10 -30 0 -16 5 -30 10 -30 6 0 10
-13 10 -30 0 -16 5 -30 10 -30 6 0 10 -9 10 -20 0 -11 5 -20 10 -20 6 0 10
-11 10 -25 0 -14 5 -25 10 -25 6 0 10 -9 10 -20 0 -11 5 -20 11 -20 6 0 28
-18 49 -40 21 -22 46 -40 54 -40 9 0 16 -4 16 -10 0 -5 8 -10 18 -10 10 0 24
-9 32 -20 8 -11 21 -20 30 -20 9 0 22 -9 30 -20 8 -11 20 -20 27 -20 7 0 13
-7 13 -15 0 -8 7 -15 16 -15 9 0 29 -14 45 -31 l28 -30 28 27 c17 18 23 29 15
32 -8 2 -12 26 -12 68 0 36 -4 64 -10 64 -5 0 -10 14 -10 30 0 17 -4 30 -10
30 -5 0 -10 9 -10 20 0 11 -4 20 -10 20 -5 0 -10 9 -10 20 0 19 -60 90 -75 90
-4 0 -24 18 -45 40 -21 22 -45 40 -52 40 -7 0 -20 9 -28 20 -8 11 -22 20 -32
20 -10 0 -18 5 -18 10 0 6 -9 10 -20 10 -11 0 -20 7 -20 15 0 10 -10 15 -31
15 -33 0 -59 19 -59 44 0 9 -4 16 -10 16 -5 0 -10 8 -10 18 0 10 -9 24 -20 32
-11 8 -20 21 -20 28 0 7 -18 31 -40 52 -22 21 -40 46 -40 55 0 16 -43 65 -57
65 -5 0 -15 9 -23 20 -8 11 -20 20 -28 20 -7 0 -40 27 -72 60 -32 33 -66 60
-74 60 -9 0 -16 5 -16 11 0 23 30 39 74 39 25 0 46 5 46 10 0 6 18 10 40 10
22 0 40 5 40 10 0 6 32 10 75 10 74 0 75 0 75 25 0 26 -59 95 -80 95 -14 0
-40 25 -40 39 0 6 -16 11 -35 11 -19 0 -35 5 -35 10 0 6 -9 10 -20 10 -11 0
-20 5 -20 10 0 6 -52 10 -135 10 -83 0 -135 -4 -135 -10 0 -5 -18 -10 -40 -10
-22 0 -40 -4 -40 -10 0 -5 -11 -10 -25 -10 -16 0 -25 -6 -25 -15 0 -10 -10
-15 -29 -15 -16 0 -32 -6 -35 -12 -5 -10 -7 -10 -12 0 -3 6 -14 12 -25 12 -10
0 -19 7 -19 15 0 8 -9 15 -20 15 -11 0 -20 5 -20 10 0 6 -9 10 -20 10 -11 0
-20 5 -20 10 0 6 -16 10 -35 10 -19 0 -35 5 -35 10 0 6 -9 10 -20 10 -11 0
-20 5 -20 10 0 6 9 10 20 10 11 0 20 5 20 10 0 6 11 10 25 10 14 0 25 5 25 10
0 6 7 10 16 10 9 0 29 14 44 30 15 17 33 30 39 30 12 0 61 44 61 55 0 13 50
55 65 55 8 0 45 29 80 65 51 51 65 71 65 95 l0 30 -115 0 c-96 0 -115 -3 -115
-15 0 -11 -12 -15 -49 -15 -30 0 -52 -5 -55 -12 -5 -10 -7 -10 -12 0 -7 14
-54 16 -54 2 0 -5 -18 -10 -40 -10 -22 0 -40 -4 -40 -10 0 -5 -9 -10 -20 -10
-11 0 -20 -4 -20 -10 0 -5 -8 -10 -18 -10 -10 0 -24 -9 -32 -20 -8 -11 -23
-20 -32 -20 -16 0 -128 -101 -128 -115 0 -3 -16 -21 -35 -40 -33 -33 -85 -48
-85 -25 0 6 -25 10 -55 10 -30 0 -55 5 -55 10 0 6 -27 10 -60 10 -33 0 -60 4
-60 10 0 6 -7 10 -15 10 -8 0 -15 7 -15 15 0 8 5 15 10 15 15 0 80 67 80 82 0
8 9 20 20 28 11 8 20 22 20 32 0 10 5 18 10 18 6 0 10 9 10 20 0 11 5 20 10
20 6 0 10 5 10 11 0 6 14 24 30 39 17 15 30 35 30 44 0 9 5 16 10 16 21 0 60
49 60 75 0 24 -2 25 -65 25 -37 0 -65 -4 -65 -10 0 -5 -22 -10 -50 -10 -27 0
-50 -4 -50 -10 0 -5 -16 -10 -35 -10 -19 0 -35 -4 -35 -10 0 -5 -9 -10 -20
-10 -11 0 -20 -4 -20 -10 0 -5 -9 -10 -20 -10 -11 0 -20 -4 -20 -10 0 -5 -7
-10 -15 -10 -15 0 -105 -82 -105 -95 0 -8 -27 -35 -35 -35 -11 0 -55 -49 -55
-62 0 -8 -9 -20 -20 -28 -11 -8 -20 -20 -20 -28 0 -7 -11 -24 -25 -37 -21 -22
-33 -25 -95 -25 -56 0 -70 -3 -70 -15 0 -12 -17 -15 -90 -15 -53 0 -90 -4 -90
-10 0 -6 -28 -10 -65 -10 -37 0 -65 -4 -65 -10 0 -5 -18 -10 -40 -10 -22 0
-40 -4 -40 -10 0 -5 -16 -10 -35 -10 -19 0 -35 -4 -35 -10 0 -5 -9 -10 -20
-10 -11 0 -20 -4 -20 -10 0 -5 -13 -10 -30 -10 -16 0 -30 -4 -30 -10 0 -5 -4
-10 -10 -10 -5 0 -10 9 -10 20 0 11 5 20 10 20 6 0 10 9 10 20 0 11 5 20 10
20 6 0 10 9 10 20 0 11 5 20 10 20 6 0 10 16 10 35 0 19 5 35 10 35 6 0 10 55
10 145 0 90 -4 145 -10 145 -6 0 -10 32 -10 75 l0 75 -30 0 c-16 0 -30 -5 -30
-10z m0 -285 c0 -77 -4 -125 -10 -125 -5 0 -10 -13 -10 -30 0 -16 -4 -30 -10
-30 -5 0 -10 -11 -10 -25 0 -14 -4 -25 -10 -25 -5 0 -10 -7 -10 -16 0 -17 -23
-44 -37 -44 -5 0 -15 -9 -23 -20 -8 -11 -22 -20 -32 -20 -16 0 -18 12 -18 135
0 83 4 135 10 135 6 0 10 9 10 20 0 11 5 20 10 20 6 0 10 9 10 20 0 11 5 20
10 20 6 0 10 11 10 25 0 14 6 25 13 25 6 0 23 14 37 30 14 16 33 30 43 30 15
0 17 -13 17 -125z m1230 115 c0 -5 -4 -10 -10 -10 -5 0 -10 -8 -10 -18 0 -10
-9 -24 -20 -32 -11 -8 -20 -24 -20 -35 0 -11 -9 -27 -20 -35 -11 -8 -20 -22
-20 -32 0 -10 -5 -18 -11 -18 -6 0 -28 -18 -49 -40 -21 -22 -46 -40 -54 -40
-9 0 -16 -4 -16 -10 0 -6 -32 -10 -75 -10 -68 0 -75 2 -75 20 0 11 5 20 10 20
14 0 60 46 60 60 0 7 18 29 40 50 22 21 40 43 40 49 0 6 9 11 20 11 11 0 20 5
20 10 0 6 9 10 20 10 11 0 20 5 20 10 0 6 11 10 25 10 14 0 25 5 25 10 0 6 14
10 30 10 17 0 30 5 30 10 0 6 9 10 20 10 11 0 20 -4 20 -10z m810 -165 c0 -10
-49 -55 -60 -55 -14 0 -100 -86 -100 -100 0 -5 -9 -10 -20 -10 -11 0 -20 -4
-20 -10 0 -5 -6 -10 -13 -10 -7 0 -19 -9 -27 -20 -8 -12 -26 -20 -42 -20 -15
0 -28 -4 -28 -10 0 -6 -32 -10 -75 -10 -43 0 -75 4 -75 10 0 6 -9 10 -20 10
-11 0 -20 2 -20 5 0 10 49 55 60 55 5 0 10 5 10 10 0 16 68 80 85 80 8 0 15 5
15 10 0 6 9 10 20 10 11 0 20 5 20 10 0 6 20 10 45 10 25 0 45 5 45 10 0 6 30
10 70 10 40 0 70 4 70 10 0 6 14 10 30 10 17 0 30 -2 30 -5z m-2770 -275 c0
-16 5 -30 10 -30 6 0 10 -18 10 -40 0 -22 5 -40 10 -40 6 0 10 -32 10 -75 0
-43 -4 -75 -10 -75 -5 0 -10 -13 -10 -30 0 -16 -4 -30 -10 -30 -5 0 -10 -11
-10 -25 0 -14 -4 -25 -10 -25 -5 0 -10 7 -10 15 0 8 -4 15 -10 15 -5 0 -10 18
-10 40 0 22 -4 40 -10 40 -6 0 -10 42 -10 105 0 63 4 105 10 105 6 0 10 11 10
25 0 25 17 54 33 55 4 0 7 -13 7 -30z m1630 -20 c0 -5 9 -10 20 -10 11 0 20
-4 20 -10 0 -5 9 -10 20 -10 11 0 20 -4 20 -10 0 -5 7 -10 15 -10 15 0 65 -42
65 -55 0 -10 49 -55 60 -55 5 0 10 -9 10 -20 0 -11 5 -20 10 -20 6 0 10 -9 10
-20 0 -11 5 -20 10 -20 6 0 10 -9 10 -20 0 -16 -7 -20 -35 -20 -19 0 -35 5
-35 10 0 6 -9 10 -20 10 -11 0 -20 5 -20 10 0 6 -9 10 -20 10 -11 0 -20 5 -20
10 0 6 -7 10 -15 10 -17 0 -125 104 -125 120 0 5 -5 10 -11 10 -19 0 -39 28
-39 54 0 14 -4 26 -10 26 -5 0 -10 5 -10 10 0 6 20 10 45 10 25 0 45 -4 45
-10z m-650 -80 c0 -5 23 -10 50 -10 38 0 50 -4 50 -15 0 -9 9 -15 25 -15 14 0
25 -4 25 -10 0 -5 7 -10 15 -10 20 0 105 -85 105 -105 0 -13 -19 -15 -115 -15
-70 0 -115 4 -115 10 0 6 -13 10 -30 10 -16 0 -30 5 -30 10 0 6 -9 10 -20 10
-11 0 -20 5 -20 10 0 6 -9 10 -20 10 -11 0 -20 5 -20 10 0 6 -7 10 -15 10 -8
0 -15 5 -15 10 0 6 -7 10 -15 10 -18 0 -65 43 -65 60 0 6 26 10 65 10 37 0 65
4 65 10 0 6 18 10 40 10 22 0 40 -4 40 -10z m2190 -70 c0 -5 9 -10 20 -10 11
0 20 -4 20 -10 0 -5 9 -10 20 -10 11 0 20 -4 20 -10 0 -5 -18 -10 -40 -10 -22
0 -40 -4 -40 -10 0 -5 -18 -10 -40 -10 -22 0 -40 -4 -40 -10 0 -5 -25 -10 -55
-10 -30 0 -55 5 -55 10 0 6 -18 10 -40 10 -22 0 -40 5 -40 10 0 6 -9 10 -20
10 -13 0 -20 7 -20 20 0 16 7 20 30 20 17 0 30 5 30 10 0 6 48 10 125 10 77 0
125 -4 125 -10z m-3780 -230 c0 -5 5 -10 10 -10 16 0 100 -88 100 -105 0 -8 5
-15 10 -15 6 0 10 -9 10 -20 0 -11 5 -20 10 -20 6 0 10 -11 10 -25 0 -14 5
-25 10 -25 6 0 10 -18 10 -40 0 -22 5 -40 10 -40 6 0 10 -18 10 -40 0 -22 -4
-40 -10 -40 -5 0 -10 -20 -10 -45 0 -38 -3 -45 -20 -45 -14 0 -20 7 -20 23 0
12 -9 29 -20 37 -11 8 -20 21 -20 30 0 9 -9 22 -20 30 -11 8 -20 22 -20 32 0
10 -4 18 -10 18 -5 0 -10 9 -10 20 0 11 -7 20 -15 20 -11 0 -15 12 -15 45 0
25 -4 45 -10 45 -6 0 -10 37 -10 90 0 53 4 90 10 90 6 0 10 -4 10 -10z m1030
-40 c0 -5 14 -10 30 -10 17 0 30 -4 30 -10 0 -5 9 -10 20 -10 13 0 20 -7 20
-20 0 -17 -7 -20 -40 -20 -22 0 -40 -4 -40 -10 0 -6 -38 -10 -95 -10 -57 0
-95 4 -95 10 0 6 -13 10 -30 10 -16 0 -30 5 -30 10 0 6 -9 10 -20 10 -11 0
-20 5 -20 10 0 6 -7 10 -15 10 -8 0 -15 5 -15 10 0 6 25 10 55 10 30 0 55 5
55 10 0 6 38 10 95 10 57 0 95 -4 95 -10z m2736 -144 c8 -8 14 -24 14 -35 0
-12 5 -21 10 -21 6 0 10 -13 10 -30 0 -16 5 -30 10 -30 6 0 10 -13 10 -30 0
-16 5 -30 10 -30 6 0 10 -38 10 -95 0 -57 -4 -95 -10 -95 -5 0 -10 -18 -10
-40 0 -33 -3 -40 -20 -40 -13 0 -20 7 -20 20 0 11 -4 20 -10 20 -5 0 -10 14
-10 30 0 17 -4 30 -10 30 -5 0 -10 8 -10 18 0 10 -9 24 -20 32 -13 9 -20 26
-20 47 0 18 -4 33 -10 33 -5 0 -10 23 -10 50 0 28 5 50 10 50 6 0 10 9 10 20
0 11 5 20 10 20 6 0 10 9 10 20 0 11 5 20 10 20 6 0 10 11 10 25 0 29 6 31 26
11z m-3056 -271 c0 -8 5 -15 10 -15 6 0 10 -9 10 -20 0 -12 -7 -20 -16 -20 -9
0 -29 -13 -44 -30 -15 -16 -34 -30 -42 -30 -7 0 -20 -9 -28 -20 -8 -12 -26
-20 -42 -20 -15 0 -28 -4 -28 -10 0 -5 -25 -10 -55 -10 -30 0 -55 -4 -55 -10
0 -6 -30 -10 -70 -10 -63 0 -70 2 -70 20 0 11 7 20 16 20 8 0 42 27 74 60 42
42 66 60 84 60 15 0 26 5 26 10 0 6 11 10 25 10 16 0 25 6 25 15 0 12 17 15
90 15 73 0 90 -3 90 -15z m3500 -115 c8 -11 21 -20 30 -20 9 0 22 -9 30 -20 8
-11 20 -20 28 -20 18 0 62 -46 62 -65 0 -19 23 -45 39 -45 6 0 11 -13 11 -30
0 -16 5 -30 10 -30 6 0 10 -9 10 -20 0 -11 -4 -20 -10 -20 -5 0 -10 5 -10 10
0 6 -7 10 -15 10 -8 0 -15 5 -15 10 0 6 -9 10 -20 10 -11 0 -20 5 -20 10 0 6
-7 10 -15 10 -17 0 -105 84 -105 100 0 5 -4 10 -10 10 -5 0 -10 9 -10 20 0 11
-4 20 -10 20 -5 0 -10 9 -10 20 0 11 -4 20 -10 20 -5 0 -10 9 -10 20 0 13 7
20 18 20 10 0 24 -9 32 -20z"/>
<path d="M1190 2143 c-16 -17 -20 -28 -12 -31 8 -2 12 -26 12 -68 0 -36 4 -64
10 -64 6 0 10 -13 10 -30 0 -16 5 -30 10 -30 6 0 10 -9 10 -20 0 -11 5 -20 10
-20 6 0 10 -7 10 -15 0 -15 42 -65 55 -65 8 0 55 -47 55 -55 0 -13 50 -55 65
-55 8 0 15 -4 15 -10 0 -5 9 -10 20 -10 11 0 20 -4 20 -10 0 -5 9 -10 20 -10
11 0 20 -4 20 -10 0 -5 11 -10 25 -10 14 0 25 -4 25 -10 0 -5 7 -10 15 -10 9
0 27 -11 40 -25 14 -13 25 -31 25 -40 0 -8 5 -15 10 -15 6 0 10 -10 10 -23 0
-12 9 -29 20 -37 11 -8 20 -20 20 -27 0 -16 85 -103 100 -103 5 0 10 -7 10
-16 0 -20 24 -44 44 -44 9 0 16 -5 16 -10 0 -16 108 -120 125 -120 8 0 15 -4
15 -10 0 -5 7 -10 15 -10 8 0 15 -9 15 -20 0 -18 -7 -20 -65 -20 -37 0 -65 -4
-65 -10 0 -5 -22 -10 -50 -10 -27 0 -50 -4 -50 -10 0 -6 -28 -10 -65 -10 l-65
0 0 -30 c0 -32 38 -80 62 -80 8 0 20 -9 28 -20 8 -11 25 -20 37 -20 13 0 23
-4 23 -10 0 -5 9 -10 20 -10 11 0 20 -4 20 -10 0 -5 14 -10 30 -10 17 0 30 -4
30 -10 0 -6 45 -10 115 -10 70 0 115 4 115 10 0 6 18 10 40 10 22 0 40 5 40
10 0 6 16 10 35 10 19 0 35 5 35 10 0 6 9 10 20 10 11 0 20 5 20 10 0 6 9 10
20 10 11 0 20 -4 20 -10 0 -5 14 -10 30 -10 17 0 30 -4 30 -10 0 -5 9 -10 20
-10 11 0 20 -4 20 -10 0 -5 11 -10 25 -10 14 0 25 -4 25 -10 0 -5 12 -10 26
-10 23 0 54 -20 54 -34 0 -3 -13 -6 -30 -6 -20 0 -30 -5 -30 -15 0 -9 -9 -15
-21 -15 -12 0 -34 -13 -49 -30 -15 -16 -33 -30 -40 -30 -6 0 -29 -18 -50 -40
-21 -22 -44 -40 -50 -40 -7 0 -25 -13 -40 -30 -15 -16 -31 -30 -35 -30 -10 0
-35 -27 -35 -39 0 -6 -7 -11 -15 -11 -23 0 -65 -46 -65 -70 0 -40 23 -50 109
-50 47 0 81 4 81 10 0 6 33 10 80 10 47 0 80 4 80 10 0 6 25 10 55 10 30 0 55
5 55 10 0 6 13 10 28 10 16 0 34 8 42 20 8 11 22 20 32 20 10 0 18 5 18 10 0
6 7 10 15 10 8 0 15 5 15 11 0 14 25 39 40 39 14 0 100 86 100 100 0 23 30 40
69 40 23 0 41 -4 41 -10 0 -5 22 -10 49 -10 30 0 52 -5 55 -12 5 -10 7 -10 12
0 7 14 44 16 44 2 0 -5 20 -10 45 -10 34 0 45 -4 45 -16 0 -15 -23 -44 -35
-44 -14 0 -55 -50 -55 -67 0 -10 -9 -25 -20 -33 -11 -8 -20 -21 -20 -30 0 -9
-9 -22 -20 -30 -11 -8 -20 -20 -20 -27 0 -16 -85 -103 -100 -103 -5 0 -10 -11
-10 -25 0 -14 -4 -25 -10 -25 -15 0 -12 -29 4 -46 17 -16 56 -19 56 -4 0 6 30
10 70 10 40 0 70 4 70 10 0 6 16 10 35 10 19 0 35 5 35 10 0 6 14 10 30 10 17
0 30 5 30 10 0 6 9 10 20 10 11 0 20 7 20 15 0 8 7 15 16 15 8 0 37 23 64 50
27 28 51 50 55 50 13 0 75 70 75 85 0 8 5 15 10 15 6 0 10 7 10 15 0 8 5 15
10 15 6 0 10 9 10 20 0 11 5 20 10 20 6 0 10 7 10 16 0 39 22 44 194 44 104 0
166 4 166 10 0 6 23 10 50 10 28 0 50 5 50 10 0 6 18 10 40 10 22 0 40 5 40
10 0 6 16 10 35 10 19 0 35 5 35 10 0 6 18 10 40 10 22 0 40 5 40 10 0 6 14
10 30 10 35 0 38 -10 10 -30 -12 -8 -20 -26 -20 -42 0 -15 -4 -28 -10 -28 -5
0 -10 -13 -10 -30 0 -16 -4 -30 -10 -30 -6 0 -10 -57 -10 -150 0 -93 4 -150
10 -150 6 0 10 -30 10 -70 0 -69 1 -70 26 -70 17 0 39 14 64 40 21 22 41 40
45 40 12 0 35 29 35 44 0 9 5 16 10 16 6 0 10 6 10 13 0 7 9 19 20 27 11 8 20
22 20 32 0 10 5 18 10 18 6 0 10 9 10 20 0 11 5 20 10 20 6 0 10 9 10 20 0 11
5 20 10 20 6 0 10 14 10 30 0 17 5 30 10 30 16 0 13 337 -2 342 -16 6 35 58
57 58 8 0 15 5 15 10 0 6 11 10 25 10 14 0 25 5 25 10 0 6 8 10 18 10 10 0 24
9 32 20 8 11 22 20 32 20 10 0 18 7 18 15 0 8 8 15 18 15 10 0 24 9 32 20 8
11 22 20 32 20 10 0 18 5 18 10 0 6 7 10 15 10 8 0 15 5 15 10 0 6 9 10 20 10
11 0 20 5 20 10 0 6 5 10 10 10 6 0 10 -9 10 -20 0 -11 -4 -20 -10 -20 -5 0
-10 -13 -10 -30 0 -16 -4 -30 -10 -30 -6 0 -10 -32 -10 -75 0 -43 4 -75 10
-75 6 0 10 -18 10 -40 0 -22 5 -40 10 -40 6 0 10 -16 10 -35 0 -19 5 -35 10
-35 6 0 10 -13 10 -30 0 -16 5 -30 10 -30 6 0 10 -7 10 -16 0 -22 25 -44 50
-44 25 0 50 22 50 44 0 9 7 16 15 16 8 0 15 9 15 20 0 11 5 20 10 20 6 0 10 9
10 20 0 11 5 20 10 20 6 0 10 16 10 35 0 19 5 35 10 35 6 0 10 45 10 115 0 70
-4 115 -10 115 -5 0 -10 14 -10 30 0 17 -4 30 -10 30 -6 0 -10 27 -10 60 0 33
-4 60 -10 60 -5 0 -10 9 -10 20 0 21 220 250 240 250 5 0 10 -9 10 -20 0 -11
5 -20 10 -20 6 0 10 -22 10 -50 0 -27 5 -50 10 -50 6 0 10 -9 10 -20 0 -11 5
-20 10 -20 6 0 10 -9 10 -20 0 -11 5 -20 10 -20 6 0 10 -9 10 -21 0 -12 14
-34 30 -49 17 -15 30 -33 30 -39 0 -14 86 -101 100 -101 5 0 10 -9 10 -20 0
-11 5 -20 10 -20 6 0 10 -7 10 -15 0 -10 10 -15 30 -15 20 0 30 5 30 15 0 8 5
15 10 15 6 0 10 27 10 60 0 33 4 60 10 60 6 0 10 35 10 85 0 50 -4 85 -10 85
-6 0 -10 27 -10 60 0 33 -4 60 -10 60 -5 0 -10 9 -10 20 0 11 -4 20 -10 20 -5
0 -10 10 -10 23 0 12 -9 29 -20 37 -11 8 -20 22 -20 32 0 10 -4 18 -10 18 -5
0 -10 9 -10 20 0 11 -5 20 -10 20 -16 0 -80 68 -80 85 0 8 -4 15 -10 15 -5 0
-10 11 -10 25 0 14 5 25 10 25 6 0 10 9 10 20 0 11 5 20 10 20 6 0 10 9 10 20
0 11 5 20 10 20 6 0 10 14 10 30 0 17 5 30 10 30 6 0 10 7 10 16 0 18 -23 44
-40 44 -18 0 -40 -27 -40 -50 0 -12 -6 -28 -14 -36 -16 -16 -86 -19 -86 -4 0
6 -45 10 -115 10 -70 0 -115 -4 -115 -10 0 -5 -25 -10 -55 -10 -30 0 -55 -4
-55 -10 0 -5 -9 -10 -20 -10 -11 0 -20 -4 -20 -10 0 -5 -8 -10 -18 -10 -10 0
-24 -9 -32 -20 -8 -11 -20 -20 -28 -20 -15 0 -62 -45 -62 -60 0 -5 -9 -10 -20
-10 -27 0 -110 -84 -110 -110 0 -29 23 -50 54 -50 14 0 26 -4 26 -10 0 -5 25
-10 55 -10 30 0 55 -4 55 -10 0 -6 30 -10 70 -10 40 0 70 4 70 10 0 6 11 10
25 10 14 0 25 5 25 10 0 6 18 10 40 10 22 0 40 5 40 10 0 6 7 10 16 10 9 0 29
14 44 30 15 16 35 30 44 30 9 0 16 5 16 10 0 6 6 10 14 10 8 0 16 6 19 13 2 6
8 9 12 5 9 -8 -18 -38 -34 -38 -6 0 -11 -7 -11 -16 0 -8 -22 -37 -50 -64 -27
-27 -50 -56 -50 -65 0 -19 -64 -85 -82 -85 -8 0 -20 -9 -28 -20 -8 -11 -18
-20 -23 -20 -5 0 -26 -18 -47 -40 -31 -32 -46 -40 -74 -40 -20 0 -36 5 -36 10
0 6 -9 10 -20 10 -11 0 -20 5 -20 10 0 6 -11 10 -25 10 -14 0 -25 5 -25 10 0
6 -9 10 -20 10 -11 0 -20 5 -20 10 0 6 -52 10 -135 10 -83 0 -135 -4 -135 -10
0 -6 -40 -10 -101 -10 -74 0 -104 -4 -115 -14 -16 -17 -19 -66 -4 -66 6 0 10
-5 10 -11 0 -17 27 -39 47 -39 10 0 25 -9 33 -20 8 -11 22 -20 32 -20 10 0 18
-4 18 -10 0 -5 9 -10 20 -10 11 0 20 -4 20 -10 0 -5 9 -10 20 -10 11 0 20 -4
20 -10 0 -5 20 -10 45 -10 25 0 45 -4 45 -10 0 -5 23 -10 50 -10 28 0 50 -4
50 -10 0 -5 -8 -10 -18 -10 -10 0 -24 -9 -32 -20 -8 -11 -22 -20 -32 -20 -10
0 -18 -4 -18 -10 0 -5 -11 -10 -25 -10 -16 0 -25 -6 -25 -15 0 -8 -9 -15 -20
-15 -11 0 -20 -4 -20 -10 0 -5 -8 -10 -18 -10 -10 0 -24 -9 -32 -20 -8 -11
-22 -20 -32 -20 -10 0 -18 -4 -18 -10 0 -5 -9 -10 -20 -10 -11 0 -20 -4 -20
-10 0 -26 -46 -5 -90 40 -27 28 -56 50 -64 50 -9 0 -16 5 -16 11 0 16 -26 39
-44 39 -9 0 -16 5 -16 10 0 6 -11 10 -25 10 -14 0 -25 5 -25 10 0 6 -9 10 -20
10 -11 0 -20 5 -20 10 0 6 -13 10 -30 10 -16 0 -30 5 -30 10 0 6 -55 10 -145
10 -90 0 -145 -4 -145 -10 0 -5 -18 -10 -41 -10 -41 0 -88 -29 -61 -38 6 -2
12 -12 12 -23 0 -10 7 -19 15 -19 8 0 15 -5 15 -11 0 -6 18 -28 40 -49 22 -21
40 -46 40 -54 0 -9 7 -16 16 -16 9 0 29 -13 44 -30 15 -16 35 -30 44 -30 9 0
16 -4 16 -10 0 -5 16 -10 35 -10 19 0 35 -4 35 -10 0 -5 23 -10 50 -10 38 0
50 -4 50 -15 0 -10 -10 -15 -30 -15 -16 0 -30 -4 -30 -10 0 -5 -25 -10 -55
-10 -30 0 -55 -4 -55 -10 0 -6 -37 -10 -90 -10 -53 0 -90 -4 -90 -10 0 -5 -25
-10 -55 -10 -48 0 -55 2 -55 20 0 11 -4 20 -10 20 -5 0 -10 16 -10 35 0 19 -4
35 -10 35 -5 0 -10 14 -10 30 0 17 -4 30 -10 30 -5 0 -10 7 -10 16 0 8 -23 37
-50 64 -28 27 -50 53 -50 59 0 6 -9 11 -21 11 -12 0 -34 14 -49 30 -15 17 -35
30 -44 30 -9 0 -16 5 -16 10 0 6 -9 10 -20 10 -11 0 -20 5 -20 10 0 6 -9 10
-20 10 -11 0 -20 5 -20 10 0 6 -25 10 -55 10 -30 0 -55 5 -55 10 0 15 -49 12
-66 -4 -16 -16 -19 -86 -4 -86 6 0 10 -16 10 -35 0 -19 5 -35 10 -35 6 0 10
-9 10 -20 0 -11 5 -20 10 -20 6 0 10 -8 10 -18 0 -10 9 -24 20 -32 11 -8 20
-20 20 -28 0 -15 24 -42 37 -42 5 0 15 -9 23 -20 8 -11 22 -20 32 -20 10 0 18
-5 18 -11 0 -16 26 -39 44 -39 9 0 16 -4 16 -10 0 -5 -22 -10 -50 -10 -27 0
-50 5 -50 10 0 6 -28 10 -65 10 -37 0 -65 4 -65 10 0 6 -22 10 -50 10 -38 0
-50 4 -50 15 0 12 -13 15 -55 15 -30 0 -55 5 -55 10 0 6 -13 10 -30 10 -16 0
-30 5 -30 10 0 6 -18 10 -40 10 -22 0 -40 5 -40 10 0 6 -16 10 -35 10 -19 0
-35 5 -35 10 0 6 -13 10 -30 10 -16 0 -30 5 -30 10 0 6 -9 10 -20 10 -11 0
-20 5 -20 10 0 6 -13 10 -30 10 -16 0 -30 5 -30 10 0 6 -11 10 -25 10 -14 0
-25 5 -25 10 0 6 -13 10 -30 10 -16 0 -30 5 -30 10 0 6 -9 10 -20 10 -11 0
-20 5 -20 10 0 6 -9 10 -20 10 -11 0 -20 7 -20 15 0 8 -9 15 -20 15 -11 0 -20
5 -20 10 0 6 -9 10 -20 10 -11 0 -20 5 -20 10 0 6 -10 10 -23 10 -12 0 -29 9
-37 20 -8 11 -21 20 -30 20 -9 0 -22 9 -30 20 -8 11 -21 20 -30 20 -9 0 -22 9
-30 20 -8 11 -21 20 -30 20 -9 0 -22 9 -30 20 -8 11 -20 20 -27 20 -7 0 -13
11 -13 25 0 16 6 25 15 25 8 0 15 9 15 20 0 11 5 20 10 20 6 0 10 9 10 20 0
11 5 20 10 20 6 0 10 9 10 20 0 11 5 20 10 20 6 0 10 18 10 40 0 22 5 40 10
40 6 0 10 20 10 45 0 25 -4 45 -10 45 -5 0 -10 14 -10 30 0 17 -4 30 -10 30
-5 0 -10 9 -10 20 0 11 -4 20 -10 20 -5 0 -10 14 -10 30 0 17 -4 30 -10 30 -5
0 -10 11 -10 25 0 16 -6 25 -15 25 -8 0 -15 9 -15 20 0 11 -4 20 -10 20 -5 0
-10 9 -10 20 0 11 -4 20 -10 20 -5 0 -10 14 -10 30 0 17 -4 30 -10 30 -5 0
-10 14 -10 30 0 17 -4 30 -10 30 -5 0 -10 7 -10 15 0 8 -9 15 -20 15 -11 0
-20 -7 -20 -15 0 -8 -4 -15 -10 -15 -5 0 -10 -9 -10 -20 0 -11 -4 -20 -10 -20
-5 0 -10 -13 -10 -30 0 -16 -4 -30 -10 -30 -5 0 -10 -13 -10 -30 0 -16 -4 -30
-10 -30 -5 0 -10 -25 -10 -55 0 -42 -3 -55 -15 -55 -12 0 -15 -18 -15 -105 0
-87 3 -105 15 -105 8 0 15 -9 15 -20 0 -27 -16 -25 -45 5 -14 13 -25 29 -25
35 0 5 -4 10 -10 10 -5 0 -10 9 -10 20 0 11 -4 20 -10 20 -5 0 -10 9 -10 20 0
11 -4 20 -10 20 -5 0 -10 9 -10 20 0 11 -4 20 -10 20 -5 0 -10 14 -10 30 0 17
-4 30 -10 30 -5 0 -10 16 -10 35 0 19 -4 35 -10 35 -5 0 -10 9 -10 20 0 11 -4
20 -10 20 -5 0 -10 9 -10 20 0 11 -4 20 -10 20 -5 0 -10 7 -10 16 0 15 -23 44
-35 44 -10 0 -75 69 -75 80 0 5 -9 10 -20 10 -11 0 -20 5 -20 10 0 6 -8 10
-18 10 -10 0 -24 9 -32 20 -8 11 -21 20 -30 20 -9 0 -22 9 -30 20 -8 11 -20
20 -27 20 -7 0 -13 5 -13 10 0 6 -8 10 -18 10 -10 0 -24 9 -32 20 -18 25 -19
25 -50 -7z m130 -144 c0 -16 26 -39 44 -39 9 0 16 -4 16 -10 0 -5 9 -10 20
-10 11 0 20 -4 20 -10 0 -5 7 -10 15 -10 19 0 65 -44 65 -62 0 -8 9 -20 20
-28 11 -8 20 -22 20 -32 0 -10 7 -18 15 -18 10 0 15 -11 15 -35 0 -24 -5 -35
-15 -35 -8 0 -15 5 -15 10 0 6 -9 10 -20 10 -11 0 -20 7 -20 15 0 8 -8 15 -18
15 -10 0 -24 9 -32 20 -8 11 -20 20 -28 20 -7 0 -24 11 -37 25 -14 13 -25 30
-25 37 0 8 -9 20 -20 28 -11 8 -20 22 -20 32 0 10 -7 18 -15 18 -10 0 -15 11
-15 35 0 24 5 35 15 35 8 0 15 -5 15 -11z m620 -209 c0 -16 5 -30 10 -30 6 0
10 -11 10 -25 0 -14 5 -25 10 -25 6 0 10 -9 10 -20 0 -11 5 -20 10 -20 6 0 10
-9 10 -20 0 -11 5 -20 10 -20 6 0 10 -13 10 -30 0 -20 5 -30 15 -30 11 0 15
-12 15 -45 0 -33 -4 -45 -15 -45 -10 0 -15 -10 -15 -30 0 -16 -4 -30 -10 -30
-5 0 -10 -9 -10 -20 0 -11 -4 -20 -10 -20 -5 0 -10 -9 -10 -20 0 -11 -3 -20
-6 -20 -11 0 -34 29 -34 44 0 9 -4 16 -10 16 -5 0 -10 14 -10 30 0 17 -4 30
-10 30 -5 0 -10 16 -10 35 0 19 -4 35 -10 35 -6 0 -10 33 -10 80 0 47 4 80 10
80 6 0 10 23 10 50 0 46 13 79 33 80 4 0 7 -13 7 -30z m3510 20 c0 -5 -5 -10
-10 -10 -11 0 -60 -45 -60 -55 0 -12 -49 -55 -62 -55 -8 0 -20 -9 -28 -20 -8
-12 -26 -20 -42 -20 -15 0 -28 -4 -28 -10 0 -5 -16 -10 -35 -10 -19 0 -35 -4
-35 -10 0 -5 -22 -10 -50 -10 -27 0 -50 5 -50 10 0 6 -18 10 -40 10 -22 0 -40
2 -40 5 0 10 49 55 60 55 14 0 60 46 60 60 0 5 9 10 20 10 11 0 20 5 20 10 0
6 9 10 20 10 11 0 20 5 20 10 0 6 20 10 45 10 25 0 45 5 45 10 0 6 38 10 95
10 57 0 95 -4 95 -10z m140 -198 c0 -10 9 -24 20 -32 11 -8 20 -22 20 -32 0
-10 5 -18 10 -18 6 0 10 -7 10 -15 0 -8 5 -15 10 -15 6 0 10 -9 10 -20 0 -11
7 -20 15 -20 8 0 15 -9 15 -20 0 -11 5 -20 10 -20 6 0 10 -27 10 -60 0 -33 4
-60 10 -60 6 0 10 -28 10 -65 0 -58 -2 -65 -20 -65 -11 0 -20 5 -20 10 0 6 -5
10 -10 10 -19 0 -80 69 -80 90 0 11 -4 20 -10 20 -5 0 -10 9 -10 20 0 11 -4
20 -10 20 -5 0 -10 9 -10 20 0 11 -4 20 -10 20 -5 0 -10 14 -10 30 0 17 -4 30
-10 30 -5 0 -10 25 -10 55 0 30 5 55 10 55 6 0 10 18 10 40 0 33 3 40 20 40
13 0 20 -7 20 -18z m-710 -322 c0 -5 14 -10 30 -10 20 0 30 -5 30 -15 0 -8 7
-15 15 -15 8 0 15 -4 15 -10 0 -5 -7 -10 -15 -10 -8 0 -15 -4 -15 -10 0 -5
-22 -10 -50 -10 -27 0 -50 -4 -50 -10 0 -5 -22 -10 -50 -10 -27 0 -50 5 -50
10 0 6 -20 10 -45 10 -25 0 -45 5 -45 10 0 6 -9 10 -20 10 -11 0 -20 5 -20 10
0 6 -9 10 -20 10 -11 0 -20 7 -20 15 0 11 11 15 40 15 22 0 40 5 40 10 0 6 45
10 115 10 70 0 115 -4 115 -10z m256 -174 c8 -8 14 -31 14 -50 0 -20 5 -36 10
-36 6 0 10 -42 10 -105 0 -63 -4 -105 -10 -105 -5 0 -10 -16 -10 -35 0 -28 -4
-35 -20 -35 -15 0 -20 7 -20 25 0 14 -4 25 -10 25 -5 0 -10 23 -10 50 0 28 -4
50 -10 50 -6 0 -10 35 -10 85 0 50 4 85 10 85 6 0 10 7 10 15 0 14 19 44 28
45 2 0 10 -6 18 -14z m-1856 -56 c0 -5 9 -10 20 -10 11 0 20 -4 20 -10 0 -5 9
-10 20 -10 11 0 20 -7 20 -15 0 -8 8 -15 18 -15 10 0 24 -9 32 -20 8 -11 21
-20 30 -20 9 0 22 -9 30 -20 8 -11 18 -20 23 -20 14 0 37 -27 37 -44 0 -9 5
-16 10 -16 6 0 10 -9 10 -20 0 -11 5 -20 10 -20 6 0 10 -11 10 -25 0 -21 -5
-25 -30 -25 -20 0 -30 5 -30 15 0 10 -11 15 -35 15 -19 0 -35 5 -35 10 0 6 -8
10 -18 10 -10 0 -24 9 -32 20 -8 11 -20 20 -28 20 -15 0 -82 65 -82 80 0 14
-25 40 -39 40 -6 0 -11 11 -11 25 0 14 -4 25 -10 25 -5 0 -10 9 -10 20 0 16 7
20 35 20 19 0 35 -4 35 -10z m830 -20 c0 -5 9 -10 20 -10 11 0 20 -7 20 -15 0
-8 9 -15 20 -15 11 0 20 -4 20 -10 0 -5 11 -10 25 -10 14 0 25 -4 25 -10 0 -5
7 -10 15 -10 14 0 85 -62 85 -75 0 -3 -65 -5 -145 -5 -90 0 -145 4 -145 10 0
6 -9 10 -20 10 -11 0 -20 5 -20 10 0 6 -11 10 -25 10 -14 0 -25 5 -25 10 0 6
-7 10 -15 10 -23 0 -85 66 -85 90 0 19 6 20 125 20 77 0 125 -4 125 -10z
m-1960 -25 c0 -10 10 -15 30 -15 17 0 30 -4 30 -10 0 -5 9 -10 20 -10 24 0 25
-6 6 -26 -8 -8 -31 -14 -50 -14 -20 0 -36 -4 -36 -10 0 -6 -38 -10 -95 -10
-57 0 -95 4 -95 10 0 6 -12 10 -26 10 -23 0 -54 20 -54 34 0 3 9 6 20 6 11 0
20 5 20 10 0 6 9 10 20 10 11 0 20 7 20 15 0 12 17 15 95 15 78 0 95 -3 95
-15z m2400 -355 c0 -87 -4 -140 -10 -140 -5 0 -10 -9 -10 -20 0 -11 -4 -20
-10 -20 -5 0 -10 -9 -10 -20 0 -11 -4 -20 -10 -20 -5 0 -10 -7 -10 -16 0 -18
-23 -44 -39 -44 -6 0 -11 -7 -11 -16 0 -20 -24 -44 -44 -44 -14 0 -16 19 -16
135 0 83 4 135 10 135 6 0 10 14 10 30 0 17 5 30 10 30 6 0 10 7 10 16 0 15
23 44 35 44 10 0 75 69 75 80 0 5 5 10 10 10 6 0 10 -53 10 -140z m-1770 60
c0 -5 14 -10 30 -10 17 0 30 -2 30 -5 0 -10 -69 -75 -80 -75 -5 0 -10 -4 -10
-10 0 -5 -7 -10 -16 -10 -9 0 -29 -13 -44 -30 -17 -18 -38 -30 -54 -30 -16 0
-26 -6 -26 -15 0 -12 -13 -15 -55 -15 -30 0 -55 -4 -55 -10 0 -6 -30 -10 -70
-10 -40 0 -70 4 -70 10 0 6 5 10 10 10 6 0 10 5 10 10 0 14 46 60 60 60 7 0
29 18 50 40 21 22 47 40 57 40 10 0 25 9 33 20 8 12 26 20 42 20 15 0 28 5 28
10 0 6 28 10 65 10 37 0 65 -4 65 -10z m750 -110 c0 -11 -4 -20 -10 -20 -5 0
-10 -9 -10 -20 0 -11 -7 -20 -15 -20 -8 0 -15 -6 -15 -13 0 -7 -9 -19 -20 -27
-11 -8 -20 -20 -20 -28 0 -18 -66 -82 -85 -82 -8 0 -15 -4 -15 -10 0 -5 -9
-10 -20 -10 -11 0 -20 -4 -20 -10 0 -5 -16 -10 -35 -10 -19 0 -35 -4 -35 -10
0 -5 -13 -10 -30 -10 -16 0 -30 -4 -30 -10 0 -5 -4 -10 -10 -10 -18 0 -11 35
10 50 11 8 20 21 20 30 0 9 9 22 20 30 11 8 20 22 20 32 0 10 5 18 11 18 16 0
39 26 39 45 0 21 24 45 44 45 9 0 16 5 16 10 0 6 9 10 20 10 11 0 20 5 20 10
0 6 28 10 65 10 37 0 65 4 65 10 0 6 5 10 10 10 6 0 10 -9 10 -20z"/>
</g>
</svg>
