<?xml version="1.0" standalone="no"?>
<!DOCTYPE svg PUBLIC "-//W3C//DTD SVG 20010904//EN"
 "http://www.w3.org/TR/2001/REC-SVG-20010904/DTD/svg10.dtd">
<svg version="1.0" xmlns="http://www.w3.org/2000/svg"
 width="688.000000pt" height="512.000000pt" viewBox="0 0 688.000000 512.000000"
 preserveAspectRatio="xMidYMid meet">

<g transform="translate(0.000000,512.000000) scale(0.100000,-0.100000)"
fill="#000000" stroke="none">
<path d="M5660 4785 c-133 -37 -262 -128 -310 -218 l-23 -44 -41 16 c-32 12
-78 16 -201 15 -164 -1 -331 -19 -619 -69 l-142 -24 -103 39 c-400 156 -855
230 -1330 217 -426 -12 -708 -71 -996 -212 -155 -75 -261 -152 -370 -266 -91
-97 -135 -166 -172 -271 -22 -61 -27 -91 -27 -184 l-1 -111 -50 -18 c-104 -36
-536 -204 -683 -265 -125 -52 -154 -68 -158 -87 -10 -40 11 -53 85 -53 102 0
656 38 911 63 23 2 32 -11 102 -148 143 -279 170 -417 107 -543 -80 -160 -183
-176 -539 -83 -234 61 -348 76 -443 61 -186 -29 -326 -129 -411 -290 -53 -101
-70 -176 -69 -315 1 -94 6 -141 26 -215 99 -377 357 -691 794 -969 437 -277
971 -464 1559 -546 156 -22 528 -30 709 -16 777 61 1478 363 1960 846 330 331
528 712 591 1137 22 152 15 448 -15 593 -88 432 -329 828 -705 1162 l-78 69
48 18 c106 40 238 109 278 147 l43 39 26 -20 c62 -49 137 -73 242 -78 128 -6
184 6 313 68 131 62 233 124 453 272 204 137 217 148 201 182 -9 20 -24 26
-103 41 -346 63 -746 91 -859 60z m395 -85 c159 -17 405 -54 405 -60 0 -10
-290 -199 -400 -262 -52 -29 -129 -69 -170 -88 -73 -34 -78 -35 -200 -35 -117
0 -128 2 -177 27 -129 69 -147 181 -44 291 53 57 110 92 189 118 66 21 249 25
397 9z m-2625 -94 c121 -17 284 -48 385 -72 99 -24 325 -97 325 -105 0 -4 -21
-10 -47 -14 -67 -10 -558 -112 -862 -180 l-254 -57 -50 21 c-91 38 -200 54
-326 48 -136 -6 -216 -25 -326 -77 -154 -72 -256 -167 -319 -300 -42 -88 -49
-215 -17 -301 45 -119 126 -204 255 -267 218 -106 504 -93 746 33 81 43 186
136 227 200 15 25 35 47 43 49 8 3 116 28 240 56 531 122 1131 276 1368 351
l93 30 72 -58 c373 -300 635 -712 728 -1140 30 -140 37 -437 15 -589 -105
-717 -670 -1348 -1501 -1677 -387 -153 -787 -227 -1230 -227 -224 0 -363 11
-575 46 -904 149 -1750 630 -2022 1149 -91 173 -132 324 -132 480 0 273 155
468 405 506 92 15 196 -1 418 -61 80 -21 177 -44 215 -51 90 -15 199 -7 256
18 61 27 125 95 163 173 30 61 32 71 31 175 0 140 -10 167 -164 485 -65 135
-128 274 -139 309 -81 253 -37 440 149 631 223 228 574 373 1030 425 166 19
637 13 800 -9z m1804 -146 c53 -12 77 -39 83 -94 5 -42 3 -48 -28 -76 -78 -74
-369 -182 -816 -305 -134 -37 -248 -63 -254 -59 -39 24 -99 231 -99 343 0 70
-17 60 175 95 506 92 819 124 939 96z m-1201 -237 c7 -95 36 -212 67 -274 11
-21 20 -43 20 -48 0 -16 -807 -207 -1230 -291 -135 -27 -348 -65 -475 -84
-360 -55 -319 -53 -344 -17 -44 61 -64 122 -63 192 0 96 14 118 87 140 210 66
521 155 710 202 267 67 1157 264 1206 266 13 1 17 -15 22 -86z m-1258 -72 c48
-10 45 -11 -110 -51 -112 -29 -496 -140 -540 -156 -14 -5 -9 5 17 32 68 72
206 142 332 169 68 15 239 18 301 6z m-1419 -588 c3 -10 17 -49 31 -86 14 -37
23 -70 21 -72 -4 -5 -400 -39 -568 -49 -84 -6 -92 -5 -70 8 19 10 436 172 540
209 28 10 41 7 46 -10z m1693 -30 c-38 -60 -203 -156 -324 -188 -91 -25 -266
-30 -346 -12 -86 21 -180 56 -174 66 2 5 33 11 67 15 86 10 507 81 648 110
147 30 143 30 129 9z"/>
<path d="M5552 4508 c-30 -30 10 -93 81 -129 87 -45 296 -4 305 59 7 46 -41
68 -82 37 -10 -8 -43 -19 -73 -26 -46 -9 -62 -8 -98 6 -24 9 -51 27 -59 41
-18 26 -54 32 -74 12z"/>
<path d="M4640 2794 c-172 -46 -309 -175 -360 -342 -24 -76 -26 -202 -6 -278
45 -169 191 -315 360 -360 28 -8 87 -14 132 -14 142 0 252 46 355 149 157 158
192 373 94 579 -99 209 -351 326 -575 266z m304 -118 c320 -158 312 -600 -14
-755 -49 -23 -67 -26 -165 -26 -103 0 -114 2 -177 32 -88 41 -160 113 -201
201 -30 63 -32 74 -32 177 0 104 2 114 32 176 79 159 222 243 401 235 71 -3
95 -9 156 -40z"/>
<path d="M4499 2353 c-24 -63 19 -191 83 -249 60 -54 111 -74 194 -74 119 0
216 64 174 116 -17 20 -43 18 -84 -7 -43 -25 -129 -28 -171 -6 -34 17 -77 61
-94 95 -7 13 -15 51 -19 85 -7 61 -8 62 -40 65 -27 3 -34 -1 -43 -25z"/>
<path d="M3568 1804 c-133 -32 -269 -135 -330 -250 -74 -139 -78 -326 -8 -464
60 -120 164 -212 288 -256 79 -28 215 -32 298 -10 260 69 426 352 359 611 -70
267 -343 434 -607 369z m217 -89 c81 -22 148 -60 201 -117 102 -110 139 -263
95 -406 -109 -361 -601 -402 -768 -64 -37 74 -38 79 -38 187 0 99 3 116 27
168 15 32 52 84 82 115 108 114 252 155 401 117z"/>
<path d="M3426 1398 c-23 -32 -21 -151 3 -204 58 -128 191 -193 322 -159 73
18 89 29 89 60 0 42 -23 49 -93 30 -77 -21 -129 -10 -183 37 -59 52 -72 94
-64 201 5 57 -43 79 -74 35z"/>
<path d="M577 1784 c-24 -24 26 -164 98 -275 132 -204 449 -451 689 -535 44
-16 69 -5 64 29 -3 22 1 20 -130 82 -238 113 -469 309 -577 490 -19 31 -47 91
-62 133 -22 65 -30 77 -51 80 -13 2 -27 0 -31 -4z"/>
<path d="M2210 1639 c-315 -46 -513 -366 -410 -663 25 -75 53 -119 113 -183
194 -206 504 -215 713 -21 238 222 203 611 -71 790 -97 64 -233 94 -345 77z
m153 -94 c89 -19 156 -56 218 -122 229 -242 93 -640 -238 -696 -272 -47 -522
202 -475 474 35 202 200 347 407 358 11 0 51 -6 88 -14z"/>
<path d="M2025 1257 c-8 -13 -19 -47 -25 -76 -33 -176 126 -348 303 -328 58 7
97 30 97 56 0 33 -24 43 -83 36 -112 -14 -203 43 -227 144 -10 44 -10 59 4
101 19 59 19 55 0 74 -22 23 -51 20 -69 -7z"/>
<path d="M3650 3994 c-231 -65 -898 -214 -1095 -245 -89 -13 -105 -21 -105
-54 0 -49 19 -51 188 -21 351 61 1124 246 1156 277 17 15 18 22 8 44 -15 32
-39 32 -152 -1z"/>
<path d="M1717 3 c948 -2 2498 -2 3445 0 948 1 173 2 -1722 2 -1895 0 -2670
-1 -1723 -2z"/>
</g>
</svg>
