<?xml version="1.0" standalone="no"?>
<!DOCTYPE svg PUBLIC "-//W3C//DTD SVG 20010904//EN"
 "http://www.w3.org/TR/2001/REC-SVG-20010904/DTD/svg10.dtd">
<svg version="1.0" xmlns="http://www.w3.org/2000/svg"
 width="512.000000pt" height="512.000000pt" viewBox="0 0 512.000000 512.000000"
 preserveAspectRatio="xMidYMid meet">

<g transform="translate(0.000000,512.000000) scale(0.100000,-0.100000)"
fill="#000000" stroke="none">
<path d="M1319 3967 c-9 -7 -21 -22 -27 -34 -9 -16 -12 -394 -12 -1493 l0
-1472 29 -29 29 -29 1231 0 c898 0 1237 3 1255 11 59 27 56 -57 56 1523 0
1551 2 1498 -48 1525 -31 17 -2491 15 -2513 -2z m2369 -379 l2 -208 -1110 0
-1110 0 0 210 0 210 1108 -2 1107 -3 3 -207z m2 -1443 l0 -1045 -1110 0 -1110
0 0 1045 0 1045 1110 0 1110 0 0 -1045z"/>
<path d="M1960 2840 l0 -110 -110 0 -110 0 0 -95 0 -95 110 0 109 0 3 -112 3
-113 92 -3 92 -3 3 113 3 113 113 3 112 3 0 94 0 95 -115 0 -115 0 0 110 0
110 -95 0 -95 0 0 -110z"/>
<path d="M2780 2635 l0 -95 315 0 315 0 0 95 0 95 -315 0 -315 0 0 -95z"/>
<path d="M2990 2005 l0 -95 100 0 100 0 0 95 0 95 -100 0 -100 0 0 -95z"/>
<path d="M1830 1995 l-64 -65 79 -80 80 -80 -80 -80 -80 -80 68 -67 67 -68 80
80 80 80 78 -78 77 -77 68 67 67 68 -77 77 -78 78 78 78 77 77 -67 68 -68 67
-77 -77 -78 -78 -78 78 c-42 42 -80 77 -83 77 -2 0 -34 -29 -69 -65z"/>
<path d="M2780 1775 l0 -95 315 0 315 0 0 95 0 95 -315 0 -315 0 0 -95z"/>
<path d="M2990 1535 l0 -95 100 0 100 0 0 95 0 95 -100 0 -100 0 0 -95z"/>
</g>
</svg>
