<?xml version="1.0"?>
<svg width="512" height="512" xmlns="http://www.w3.org/2000/svg" xmlns:svg="http://www.w3.org/2000/svg" preserveAspectRatio="xMidYMid meet" version="1.0">
 <g class="layer">
  <title>Layer 1</title>
  <g fill="#000000" id="svg_1" transform="matrix(0.164561 0 0 -0.164561 -177.067 -185.047)">
   <path d="m1379.77,-1153c-9,-7 -21,-22 -27,-34c-9,-16 -12,-394 -12,-1493l0,-1472l29,-29l29,-29l1231,0c898,0 1237,3 1255,11c59,27 56,-57 56,1523c0,1551 2,1498 -48,1525c-31,17 -2491,15 -2513,-2zm2369,-379l2,-208l-1110,0l-1110,0l0,210l0,210l1108,-2l1107,-3l3,-207zm2,-1443l0,-1045l-1110,0l-1110,0l0,1045l0,1045l1110,0l1110,0l0,-1045z" id="svg_2"/>
   <path d="m2020.77,-2280l0,-110l-110,0l-110,0l0,-95l0,-95l110,0l109,0l3,-112l3,-113l92,-3l92,-3l3,113l3,113l113,3l112,3l0,94l0,95l-115,0l-115,0l0,110l0,110l-95,0l-95,0l0,-110z" id="svg_3"/>
   <path d="m2840.77,-2485l0,-95l315,0l315,0l0,95l0,95l-315,0l-315,0l0,-95z" id="svg_4"/>
   <path d="m3050.77,-3115l0,-95l100,0l100,0l0,95l0,95l-100,0l-100,0l0,-95z" id="svg_5"/>
   <path d="m1890.77,-3125l-64,-65l79,-80l80,-80l-80,-80l-80,-80l68,-67l67,-68l80,80l80,80l78,-78l77,-77l68,67l67,68l-77,77l-78,78l78,78l77,77l-67,68l-68,67l-77,-77l-78,-78l-78,78c-42,42 -80,77 -83,77c-2,0 -34,-29 -69,-65z" id="svg_6"/>
   <path d="m2840.77,-3345l0,-95l315,0l315,0l0,95l0,95l-315,0l-315,0l0,-95z" id="svg_7"/>
   <path d="m3050.77,-3585l0,-95l100,0l100,0l0,95l0,95l-100,0l-100,0l0,-95z" id="svg_8"/>
  </g>
 </g>
</svg>