<?xml version="1.0"?>
<svg width="200" height="200" xmlns="http://www.w3.org/2000/svg" xmlns:svg="http://www.w3.org/2000/svg" preserveAspectRatio="xMidYMid meet" version="1.0">
 <g class="layer">
  <title>Layer 1</title>
  <g fill="#000000" id="svg_1" transform="matrix(0.162219 0 0 -0.162219 -62.2191 -62.0372)">
   <path d="m990,-585c0,-63 4,-105 10,-105c6,0 10,42 10,105c0,63 -4,105 -10,105c-6,0 -10,-42 -10,-105z" id="svg_2"/>
   <path d="m670,-546c0,-13 123,-204 131,-204c11,0 4,12 -66,128c-43,71 -65,97 -65,76z" id="svg_3"/>
   <path d="m1287,-591c-60,-95 -90,-150 -84,-155c5,-6 47,56 101,149c39,67 25,71 -17,6z" id="svg_4"/>
   <path d="m871,-630c0,-14 6,-38 14,-55c13,-29 13,-29 14,-5c0,14 -6,39 -14,55c-13,29 -13,29 -14,5z" id="svg_5"/>
   <path d="m1110,-655c-13,-48 -7,-75 8,-34c17,45 22,79 13,79c-4,0 -14,-20 -21,-45z" id="svg_6"/>
   <path d="m665,-770c21,-22 41,-37 44,-35c6,7 -60,75 -73,75c-6,0 7,-18 29,-40z" id="svg_7"/>
   <path d="m1320,-765c-22,-23 -29,-35 -19,-35c15,0 69,49 69,63c0,15 -18,5 -50,-28z" id="svg_8"/>
   <path d="m450,-778c0,-7 190,-112 204,-112c20,0 -14,23 -98,69c-98,53 -106,56 -106,43z" id="svg_9"/>
   <path d="m889,-784c-145,-52 -246,-210 -224,-352c10,-68 20,-52 20,34c0,95 25,156 92,224c65,66 129,92 223,92c94,-1 168,-33 230,-100c62,-67 84,-124 84,-216c1,-43 4,-78 8,-78c18,0 8,150 -13,205c-28,76 -108,156 -184,184c-65,24 -179,28 -236,7z" id="svg_10"/>
   <path d="m1435,-827c-54,-31 -94,-58 -89,-60c14,-5 204,97 204,109c0,14 -12,9 -115,-49z" id="svg_11"/>
   <path d="m510,-958c0,-11 89,-36 98,-28c2,3 -7,10 -22,16c-48,18 -76,22 -76,12z" id="svg_12"/>
   <path d="m1440,-962c-39,-11 -63,-28 -38,-28c20,0 80,20 93,31c12,11 -9,10 -55,-3z" id="svg_13"/>
   <path d="m500,-1080c0,-5 21,-10 46,-10c27,0 43,4 39,10c-3,6 -24,10 -46,10c-21,0 -39,-4 -39,-10z" id="svg_14"/>
   <path d="m1420,-1080c0,-5 18,-10 40,-10c22,0 40,5 40,10c0,6 -18,10 -40,10c-22,0 -40,-4 -40,-10z" id="svg_15"/>
   <path d="m390,-1270c0,-6 54,-10 143,-10c103,0 174,-6 253,-21c141,-27 285,-27 428,0c79,15 151,21 253,21c89,0 143,4 143,10c0,20 -267,12 -390,-12c-151,-29 -299,-29 -440,0c-114,24 -390,32 -390,12z" id="svg_16"/>
   <path d="m570,-1380c0,-6 36,-10 88,-10c48,0 128,-7 177,-15c113,-19 214,-19 335,0c52,8 132,15 178,15c48,0 82,4 82,10c0,15 -130,12 -244,-5c-55,-8 -138,-15 -186,-15c-48,0 -131,7 -186,15c-114,17 -244,20 -244,5z" id="svg_17"/>
   <path d="m720,-1487c0,-10 169,-27 275,-27c107,-1 285,17 285,27c0,7 -31,7 -92,1c-51,-4 -136,-8 -188,-8c-52,0 -137,4 -187,8c-61,6 -93,6 -93,-1z" id="svg_18"/>
  </g>
 </g>
</svg>